<svg width="17" height="17" viewBox="0 0 17 17" fill="none" xmlns="http://www.w3.org/2000/svg">
<path fill-rule="evenodd" clip-rule="evenodd" d="M8.49966 0.583374C4.12744 0.583374 0.583008 4.12776 0.583008 8.50003C0.583008 12.8723 4.12744 16.4167 8.49966 16.4167C12.872 16.4167 16.4164 12.8723 16.4164 8.50003C16.4164 4.12776 12.872 0.583374 8.49966 0.583374ZM8.49966 14.8334C5.00748 14.8334 2.16635 11.9922 2.16635 8.50003C2.16635 5.00781 5.00745 2.16672 8.49966 2.16672C11.9919 2.16672 14.833 5.00781 14.833 8.50003C14.833 11.9922 11.9919 14.8334 8.49966 14.8334ZM9.491 5.33337C9.491 5.90738 9.07308 6.32297 8.50772 6.32297C7.91949 6.32297 7.51181 5.90734 7.51181 5.32239C7.51181 4.76018 7.93052 4.34382 8.50772 4.34382C9.07308 4.34382 9.491 4.76018 9.491 5.33337ZM7.70975 7.70837H9.29306V12.4584H7.70975V7.70837Z" fill="black"/>
</svg>
