<svg width="15" height="19" viewBox="0 0 15 19" fill="none" xmlns="http://www.w3.org/2000/svg">
<path d="M3.76578 12.7366C3.72981 12.6263 3.65148 12.5347 3.54802 12.4821C3.44456 12.4295 3.32444 12.4202 3.21409 12.4562C3.10375 12.4921 3.01221 12.5705 2.95962 12.6739C2.90703 12.7774 2.89769 12.8975 2.93366 13.0079C3.26145 14.0207 3.90127 14.9039 4.76153 15.5309C5.62041 16.157 6.65576 16.4944 7.71859 16.4947C7.96009 16.4947 8.15609 16.2983 8.15609 16.0559C8.15609 15.8136 7.96009 15.6171 7.71859 15.6171C6.8406 15.6164 5.98538 15.3377 5.27559 14.8209C4.56513 14.3027 4.03667 13.5732 3.76578 12.7366Z" fill="black"/>
<path fill-rule="evenodd" clip-rule="evenodd" d="M7.5 0.75L7.19812 1.03875L7.19637 1.0405L7.19244 1.044L7.17844 1.058L7.12506 1.11006C7.0784 1.15585 7.0119 1.22221 6.92556 1.30912C5.9026 2.35327 4.95355 3.46736 4.08531 4.64331C2.54794 6.735 0.9375 9.53588 0.9375 12.16C0.9375 15.5572 3.91075 18.25 7.5 18.25C11.0893 18.25 14.0625 15.5572 14.0625 12.16C14.0625 9.535 12.4521 6.73456 10.9147 4.64375C10.0465 3.46765 9.09742 2.35341 8.07444 1.30912C7.99096 1.2246 7.90666 1.14089 7.82156 1.058L7.80756 1.044L7.80319 1.0405L7.5 0.75ZM6.86519 2.64612C7.07309 2.41894 7.28472 2.1952 7.5 1.975C8.47511 2.97507 9.38066 4.04069 10.2103 5.16438C11.7354 7.239 13.1875 9.83994 13.1875 12.16C13.1875 15.0051 10.6763 17.3724 7.5 17.3724C4.32375 17.3724 1.8125 15.0051 1.8125 12.16C1.8125 9.83994 3.26456 7.239 4.78969 5.16438C5.43627 4.28867 6.12909 3.44806 6.86519 2.64612Z" fill="black"/>
</svg>
