<svg width="18" height="19" viewBox="0 0 18 19" fill="none" xmlns="http://www.w3.org/2000/svg">
<path d="M15.5603 6.23793L15.4954 5.99713L15.4954 5.99698C15.3019 5.27966 14.9237 4.6256 14.3986 4.10002C13.8735 3.5745 13.2199 3.19579 12.5028 3.00164C12.5027 3.00162 12.5026 3.0016 12.5026 3.00158L12.2608 2.936L12.3915 2.45335L12.6328 2.5186C12.6328 2.51861 12.6329 2.51861 12.6329 2.51862C13.4345 2.73555 14.1652 3.15885 14.7522 3.7463C15.3391 4.33373 15.7618 5.06478 15.9781 5.86654C15.9781 5.86658 15.9782 5.86663 15.9782 5.86667L16.0431 6.10767L15.5603 6.23793ZM12.9612 6.68038L12.9611 6.68019C12.8871 6.406 12.7426 6.15598 12.5419 5.95507C12.3412 5.75419 12.0914 5.60941 11.8173 5.53514C11.8172 5.53513 11.8172 5.53512 11.8171 5.5351L11.5753 5.4695L11.706 4.98685L11.9473 5.0521C11.9473 5.05211 11.9474 5.05211 11.9474 5.05212C12.306 5.14917 12.6329 5.33854 12.8955 5.60133C13.1581 5.86415 13.3472 6.19122 13.4439 6.54992L13.5089 6.79141L13.0261 6.92141L12.9612 6.68038Z" stroke="black"/>
<path d="M1.25002 2.75085H1.25002V2.75V2.5H6.78396L7.75265 6.85812L6.55237 8.05904L6.26771 8.34386L6.48531 8.68269C7.344 10.0198 8.48036 11.1564 9.81723 12.0154L10.1562 12.2332L10.4411 11.9483L11.642 10.7474L16 11.7161V17.25L15.75 17.25L15.7492 17.25C12.9586 17.2548 10.2266 16.45 7.88428 14.9333L7.88418 14.9332C6.15637 13.8151 4.68496 12.3437 3.56679 10.6158L3.56672 10.6157C2.05001 8.27338 1.24526 5.54138 1.25002 2.75085Z" stroke="black"/>
</svg>
