<svg width="19" height="19" viewBox="0 0 19 19" fill="none" xmlns="http://www.w3.org/2000/svg">
<path d="M14.0003 11.5H4.00033L0.666992 14.8333V1.49996C0.666992 1.27895 0.75479 1.06698 0.91107 0.910704C1.06735 0.754423 1.27931 0.666626 1.50033 0.666626H14.0003C14.2213 0.666626 14.4333 0.754423 14.5896 0.910704C14.7459 1.06698 14.8337 1.27895 14.8337 1.49996V10.6666C14.8337 10.8876 14.7459 11.0996 14.5896 11.2559C14.4333 11.4122 14.2213 11.5 14.0003 11.5ZM18.167 6.49996V18.1666L14.8337 14.8333H5.66699C5.44598 14.8333 5.23402 14.7455 5.07774 14.5892C4.92146 14.4329 4.83366 14.221 4.83366 14V13.1666H16.5003V5.66663H17.3337C17.5547 5.66663 17.7666 5.75442 17.9229 5.9107C18.0792 6.06698 18.167 6.27895 18.167 6.49996ZM5.82533 2.33329C5.10033 2.33329 4.51699 2.49996 4.06699 2.82496C3.63366 3.16663 3.41699 3.64163 3.42533 4.29996L3.43366 4.32496H5.04199C5.05033 4.07496 5.12533 3.88329 5.27533 3.74996C5.42964 3.622 5.62491 3.55395 5.82533 3.55829C6.08366 3.55829 6.30032 3.64163 6.45033 3.79163C6.60033 3.94996 6.66699 4.16663 6.66699 4.41663C6.66699 4.68329 6.60866 4.90829 6.47533 5.09996C6.35866 5.29163 6.18366 5.45829 5.96699 5.59163C5.54199 5.87496 5.25033 6.12496 5.09199 6.34996C4.92533 6.56663 4.83366 6.91663 4.83366 7.33329H6.50033C6.50033 7.07496 6.53366 6.86663 6.60866 6.71663C6.68366 6.56663 6.82533 6.41663 7.03366 6.28329C7.40866 6.08329 7.71699 5.84163 7.95866 5.50829C8.20033 5.17496 8.32533 4.83329 8.32533 4.41663C8.32533 3.78329 8.10033 3.27496 7.65033 2.89996C7.20866 2.52496 6.60033 2.33329 5.82533 2.33329ZM4.83366 8.16663V9.83329H6.50033V8.16663H4.83366ZM9.83366 9.83329H11.5003V8.16663H9.83366V9.83329ZM9.83366 2.33329V7.33329H11.5003V2.33329H9.83366Z" fill="black"/>
</svg>
