<svg width="16" height="17" viewBox="0 0 16 17" fill="none" xmlns="http://www.w3.org/2000/svg">
<path d="M10.4994 7.66695V7.67529M2.31049 5.48203C1.94501 5.20113 1.6643 4.82464 1.49941 4.39418C1.33451 3.96371 1.29184 3.49604 1.37612 3.04285C1.4604 2.58965 1.66834 2.16859 1.97697 1.82618C2.28559 1.48378 2.68287 1.23337 3.12491 1.10264C3.56695 0.971912 4.03652 0.965945 4.48174 1.0854C4.92696 1.20486 5.33048 1.44509 5.6477 1.77954C5.96492 2.11399 6.18349 2.52964 6.27926 2.98055C6.37503 3.43145 6.34426 3.90006 6.19035 4.33457" stroke="black" stroke-linecap="round" stroke-linejoin="round"/>
<path d="M11.3326 1.83383V5.00289C12.3639 5.59969 13.1491 6.54407 13.5476 7.66696H14.665C14.886 7.66696 15.098 7.75475 15.2542 7.91103C15.4105 8.0673 15.4983 8.27925 15.4983 8.50026V10.1669C15.4983 10.3879 15.4105 10.5998 15.2542 10.7561C15.098 10.9124 14.886 11.0002 14.665 11.0002H13.5467C13.2667 11.7918 12.7909 12.5001 12.1651 13.0609V14.75C12.1651 15.0815 12.0334 15.3995 11.799 15.6339C11.5646 15.8683 11.2467 16 10.9151 16C10.5836 16 10.2657 15.8683 10.0313 15.6339C9.79688 15.3995 9.66519 15.0815 9.66519 14.75V14.2642C9.38984 14.3105 9.1111 14.3336 8.83189 14.3334H5.49867C5.21946 14.3336 4.94072 14.3105 4.66537 14.2642V14.75C4.66537 15.0815 4.53368 15.3995 4.29927 15.6339C4.06486 15.8683 3.74692 16 3.41542 16C3.08391 16 2.76598 15.8683 2.53156 15.6339C2.29715 15.3995 2.16546 15.0815 2.16546 14.75V13.0609C1.41046 12.3859 0.878236 11.4976 0.63925 10.5134C0.400264 9.52926 0.46578 8.49574 0.827125 7.54965C1.18847 6.60355 1.82861 5.7895 2.6628 5.21524C3.497 4.64097 4.48592 4.33358 5.49867 4.33374H7.58193L11.3326 1.83383Z" stroke="black" stroke-linecap="round" stroke-linejoin="round"/>
</svg>
