<svg width="16" height="17" viewBox="0 0 16 17" fill="none" xmlns="http://www.w3.org/2000/svg">
<path d="M13.5 4.5H2.5C1.67157 4.5 1 5.17157 1 6V13C1 13.8284 1.67157 14.5 2.5 14.5H13.5C14.3284 14.5 15 13.8284 15 13V6C15 5.17157 14.3284 4.5 13.5 4.5Z" stroke="black" stroke-linejoin="round"/>
<path d="M4.5 4.5V3.5C4.5 3.23478 4.60536 2.98043 4.79289 2.79289C4.98043 2.60536 5.23478 2.5 5.5 2.5H10.5C10.7652 2.5 11.0196 2.60536 11.2071 2.79289C11.3946 2.98043 11.5 3.23478 11.5 3.5V4.5M15 8H1M10 8V8.75C10 8.8163 9.97366 8.87989 9.92678 8.92678C9.87989 8.97366 9.8163 9 9.75 9H6.25C6.1837 9 6.12011 8.97366 6.07322 8.92678C6.02634 8.87989 6 8.8163 6 8.75V8" stroke="black" stroke-linecap="round" stroke-linejoin="round"/>
</svg>
