<svg width="17" height="17" viewBox="0 0 17 17" fill="none" xmlns="http://www.w3.org/2000/svg">
<path d="M1.45312 8.5C1.45312 12.6422 4.81088 16 8.95312 16C13.0954 16 16.4531 12.6422 16.4531 8.5C16.4531 4.35775 13.0954 1 8.95312 1C4.81088 1 1.45312 4.35775 1.45312 8.5Z" stroke="black" stroke-linecap="round" stroke-linejoin="round"/>
<path d="M9.70328 1.03748C9.70328 1.03748 11.9533 3.99998 11.9533 8.49998C11.9533 13 9.70328 15.9625 9.70328 15.9625M8.20328 15.9625C8.20328 15.9625 5.95328 13 5.95328 8.49998C5.95328 3.99998 8.20328 1.03748 8.20328 1.03748M1.92578 11.125H15.9808M1.92578 5.87498H15.9808" stroke="black" stroke-linecap="round" stroke-linejoin="round"/>
</svg>
