<svg width="19" height="19" viewBox="0 0 19 19" fill="none" xmlns="http://www.w3.org/2000/svg">
<path d="M8.60162 5.02144C8.50836 4.75646 8.33517 4.52695 8.10594 4.36457C7.87672 4.20219 7.60275 4.11494 7.32184 4.11486H6.27005C5.97168 4.1157 5.68409 4.22658 5.46239 4.42627C5.24068 4.62595 5.10042 4.90041 5.06849 5.19707C5.03655 5.49374 5.11518 5.79176 5.28931 6.03406C5.46344 6.27635 5.72083 6.4459 6.0122 6.51022L7.61091 6.86036C7.93804 6.93176 8.22722 7.12157 8.42287 7.39329C8.61851 7.66501 8.70681 7.99946 8.67078 8.33234C8.63474 8.66523 8.47693 8.97304 8.22767 9.1966C7.97841 9.42016 7.65531 9.54369 7.32048 9.54344H6.41527C6.13468 9.54356 5.86096 9.45671 5.63177 9.29484C5.40258 9.13297 5.2292 8.90405 5.13548 8.63958M6.86991 4.11486V2.75772M6.86991 10.9006V9.54344M9.45798 18.3201V11.1951C9.45798 10.7452 9.63671 10.3137 9.95485 9.99552C10.273 9.67738 10.7045 9.49865 11.1544 9.49865C11.6043 9.49865 12.0358 9.67738 12.354 9.99552C12.6721 10.3137 12.8508 10.7452 12.8508 11.1951V14.9272H15.5651C16.285 14.9272 16.9754 15.2132 17.4844 15.7222C17.9934 16.2312 18.2794 16.9216 18.2794 17.6415V18.3201" stroke="black" stroke-linecap="round" stroke-linejoin="round"/>
<path d="M6.87103 12.9797C5.6189 12.9795 4.39666 12.5971 3.36773 11.8836C2.33879 11.1701 1.5522 10.1594 1.11312 8.9868C0.674047 7.81418 0.603409 6.53546 0.910654 5.32161C1.2179 4.10776 1.88839 3.01663 2.83247 2.19411C3.77655 1.37159 4.94923 0.856876 6.19372 0.718788C7.43821 0.5807 8.69521 0.825819 9.79664 1.42137C10.8981 2.01693 11.7914 2.93453 12.3573 4.0515C12.9232 5.16847 13.1346 6.43157 12.9632 7.67192" stroke="black" stroke-linecap="round"/>
</svg>
