<svg width="19" height="15" viewBox="0 0 19 15" fill="none" xmlns="http://www.w3.org/2000/svg">
<path d="M2.5918 0.9375C1.51227 0.9375 0.623047 1.82672 0.623047 2.90625V12.0938C0.623047 13.1733 1.51227 14.0625 2.5918 14.0625H17.0293C18.1088 14.0625 18.998 13.1733 18.998 12.0938V2.90625C18.998 1.82672 18.1088 0.9375 17.0293 0.9375H2.5918ZM2.5918 2.25H17.0293C17.4007 2.25 17.6855 2.53481 17.6855 2.90625V12.0938C17.6855 12.4652 17.4007 12.75 17.0293 12.75H2.5918C2.22036 12.75 1.93555 12.4652 1.93555 12.0938V2.90625C1.93555 2.53481 2.22036 2.25 2.5918 2.25ZM6.5293 3.5625C5.08555 3.5625 3.9043 4.74375 3.9043 6.1875C3.9043 6.91791 4.21733 7.57678 4.70427 8.05387C4.25773 8.35547 3.89165 8.7616 3.63786 9.23694C3.38406 9.71227 3.25025 10.2424 3.24805 10.7812H4.56055C4.56055 9.68663 5.43467 8.8125 6.5293 8.8125C7.62392 8.8125 8.49805 9.68663 8.49805 10.7812H9.81055C9.80835 10.2424 9.67453 9.71227 9.42074 9.23694C9.16694 8.7616 8.80086 8.35547 8.35433 8.05387C8.84127 7.57678 9.1543 6.91856 9.1543 6.1875C9.1543 4.74375 7.97305 3.5625 6.5293 3.5625ZM11.123 4.21875V5.53125H16.373V4.21875H11.123ZM6.5293 4.875C7.26233 4.875 7.8418 5.45447 7.8418 6.1875C7.8418 6.92053 7.26233 7.5 6.5293 7.5C5.79627 7.5 5.2168 6.92053 5.2168 6.1875C5.2168 5.45447 5.79627 4.875 6.5293 4.875ZM11.123 6.84375V8.15625H16.373V6.84375H11.123ZM11.123 9.46875V10.7812H14.4043V9.46875H11.123Z" fill="black"/>
</svg>
