<svg width="13" height="13" viewBox="0 0 13 13" fill="none" xmlns="http://www.w3.org/2000/svg">
<path d="M12.0605 7.08722H7.68555V11.4622C7.68555 11.9435 7.2918 12.3372 6.81055 12.3372C6.3293 12.3372 5.93555 11.9435 5.93555 11.4622V7.08722H1.56055C1.0793 7.08722 0.685547 6.69347 0.685547 6.21222C0.685547 5.73097 1.0793 5.33722 1.56055 5.33722H5.93555V0.962219C5.93555 0.480969 6.3293 0.0872192 6.81055 0.0872192C7.2918 0.0872192 7.68555 0.480969 7.68555 0.962219V5.33722H12.0605C12.5418 5.33722 12.9355 5.73097 12.9355 6.21222C12.9355 6.69347 12.5418 7.08722 12.0605 7.08722Z" fill="black"/>
</svg>
