<svg width="16" height="15" viewBox="0 0 16 15" fill="none" xmlns="http://www.w3.org/2000/svg">
<path d="M13.9844 11.9141C14.4948 12.1641 14.9167 12.5156 15.25 12.9688C15.5833 13.4219 15.7943 13.9323 15.8828 14.5H15.0234C14.9661 14.2031 14.8594 13.9271 14.7031 13.6719C14.5469 13.4167 14.3568 13.1979 14.1328 13.0156C13.9089 12.8333 13.6562 12.6875 13.375 12.5781C13.0938 12.4688 12.8021 12.4167 12.5 12.4219C12.1927 12.4219 11.901 12.474 11.625 12.5781C11.349 12.6823 11.0964 12.8255 10.8672 13.0078C10.638 13.1901 10.4479 13.4115 10.2969 13.6719C10.1458 13.9323 10.0391 14.2083 9.97656 14.5H9.11719C9.20052 13.9375 9.40885 13.4297 9.74219 12.9766C10.0755 12.5234 10.5 12.1693 11.0156 11.9141C10.7188 11.6797 10.4896 11.3958 10.3281 11.0625C10.1667 10.7292 10.0833 10.375 10.0781 10C10.0781 9.76562 10.1094 9.53906 10.1719 9.32031C10.2344 9.10156 10.3281 8.89583 10.4531 8.70312C10.5781 8.51042 10.7266 8.33854 10.8984 8.1875C11.0703 8.03646 11.263 7.90885 11.4766 7.80469C11.3359 7.60156 11.1745 7.42188 10.9922 7.26562C10.8099 7.10938 10.612 6.97135 10.3984 6.85156C10.1849 6.73177 9.96094 6.64583 9.72656 6.59375C9.49219 6.54167 9.25 6.51042 9 6.5C8.58333 6.5 8.1849 6.58073 7.80469 6.74219C7.42448 6.90365 7.09375 7.14062 6.8125 7.45312C6.9375 7.79167 7 8.14062 7 8.5C7 8.97917 6.89323 9.42969 6.67969 9.85156C6.46615 10.2734 6.16667 10.6276 5.78125 10.9141C6.11979 11.0859 6.42448 11.2969 6.69531 11.5469C6.96615 11.7969 7.20052 12.0781 7.39844 12.3906C7.59635 12.7031 7.74479 13.0365 7.84375 13.3906C7.94271 13.7448 7.99479 14.1146 8 14.5H7C7 14.0885 6.92188 13.7005 6.76562 13.3359C6.60938 12.9714 6.39583 12.6536 6.125 12.3828C5.85417 12.112 5.53385 11.8958 5.16406 11.7344C4.79427 11.5729 4.40625 11.4948 4 11.5C3.58333 11.5 3.19531 11.5781 2.83594 11.7344C2.47656 11.8906 2.15885 12.1042 1.88281 12.375C1.60677 12.6458 1.39062 12.9661 1.23438 13.3359C1.07812 13.7057 1 14.0938 1 14.5H0C0 14.1198 0.0520833 13.7526 0.15625 13.3984C0.260417 13.0443 0.408854 12.7109 0.601562 12.3984C0.794271 12.0859 1.02604 11.8047 1.29688 11.5547C1.56771 11.3047 1.875 11.0911 2.21875 10.9141C1.83333 10.6276 1.53385 10.2734 1.32031 9.85156C1.10677 9.42969 1 8.97917 1 8.5C1 8.08854 1.07812 7.70052 1.23438 7.33594C1.39062 6.97135 1.60417 6.65365 1.875 6.38281C2.14583 6.11198 2.46354 5.89583 2.82812 5.73438C3.19271 5.57292 3.58333 5.49479 4 5.5C4.44271 5.5 4.86198 5.59375 5.25781 5.78125C5.65365 5.96875 5.9974 6.22917 6.28906 6.5625C6.42448 6.43229 6.57031 6.3151 6.72656 6.21094C6.88281 6.10677 7.04688 6.00781 7.21875 5.91406C6.83333 5.6276 6.53385 5.27344 6.32031 4.85156C6.10677 4.42969 6 3.97917 6 3.5C6 3.08854 6.07812 2.70052 6.23438 2.33594C6.39062 1.97135 6.60417 1.65365 6.875 1.38281C7.14583 1.11198 7.46354 0.895833 7.82812 0.734375C8.19271 0.572917 8.58333 0.494792 9 0.5C9.41146 0.5 9.79948 0.578125 10.1641 0.734375C10.5286 0.890625 10.8464 1.10417 11.1172 1.375C11.388 1.64583 11.6042 1.96615 11.7656 2.33594C11.9271 2.70573 12.0052 3.09375 12 3.5C12 3.97917 11.8932 4.42969 11.6797 4.85156C11.4661 5.27344 11.1667 5.6276 10.7812 5.91406C11.1458 6.10677 11.474 6.34115 11.7656 6.61719C12.0573 6.89323 12.3047 7.21354 12.5078 7.57812C12.8411 7.57812 13.1536 7.64062 13.4453 7.76562C13.737 7.89062 13.9948 8.0651 14.2188 8.28906C14.4427 8.51302 14.6146 8.76823 14.7344 9.05469C14.8542 9.34115 14.9167 9.65625 14.9219 10C14.9219 10.375 14.8411 10.7292 14.6797 11.0625C14.5182 11.3958 14.2865 11.6797 13.9844 11.9141ZM4 10.5C4.27604 10.5 4.53385 10.4479 4.77344 10.3438C5.01302 10.2396 5.22656 10.0964 5.41406 9.91406C5.60156 9.73177 5.74479 9.52083 5.84375 9.28125C5.94271 9.04167 5.99479 8.78125 6 8.5C6 8.22396 5.94792 7.96615 5.84375 7.72656C5.73958 7.48698 5.59635 7.27344 5.41406 7.08594C5.23177 6.89844 5.02083 6.75521 4.78125 6.65625C4.54167 6.55729 4.28125 6.50521 4 6.5C3.72396 6.5 3.46615 6.55208 3.22656 6.65625C2.98698 6.76042 2.77344 6.90365 2.58594 7.08594C2.39844 7.26823 2.25521 7.47917 2.15625 7.71875C2.05729 7.95833 2.00521 8.21875 2 8.5C2 8.77604 2.05208 9.03385 2.15625 9.27344C2.26042 9.51302 2.40365 9.72656 2.58594 9.91406C2.76823 10.1016 2.97917 10.2448 3.21875 10.3438C3.45833 10.4427 3.71875 10.4948 4 10.5ZM7 3.5C7 3.77604 7.05208 4.03385 7.15625 4.27344C7.26042 4.51302 7.40365 4.72656 7.58594 4.91406C7.76823 5.10156 7.97917 5.24479 8.21875 5.34375C8.45833 5.44271 8.71875 5.49479 9 5.5C9.27604 5.5 9.53385 5.44792 9.77344 5.34375C10.013 5.23958 10.2266 5.09635 10.4141 4.91406C10.6016 4.73177 10.7448 4.52083 10.8438 4.28125C10.9427 4.04167 10.9948 3.78125 11 3.5C11 3.22396 10.9479 2.96615 10.8438 2.72656C10.7396 2.48698 10.5964 2.27344 10.4141 2.08594C10.2318 1.89844 10.0208 1.75521 9.78125 1.65625C9.54167 1.55729 9.28125 1.50521 9 1.5C8.72396 1.5 8.46615 1.55208 8.22656 1.65625C7.98698 1.76042 7.77344 1.90365 7.58594 2.08594C7.39844 2.26823 7.25521 2.47917 7.15625 2.71875C7.05729 2.95833 7.00521 3.21875 7 3.5ZM12.5 8.42188C12.2812 8.42188 12.0781 8.46354 11.8906 8.54688C11.7031 8.63021 11.5365 8.74219 11.3906 8.88281C11.2448 9.02344 11.1302 9.1901 11.0469 9.38281C10.9635 9.57552 10.9219 9.78125 10.9219 10C10.9219 10.2188 10.9635 10.4219 11.0469 10.6094C11.1302 10.7969 11.2422 10.9635 11.3828 11.1094C11.5234 11.2552 11.6901 11.3698 11.8828 11.4531C12.0755 11.5365 12.2812 11.5781 12.5 11.5781C12.7188 11.5781 12.9219 11.5365 13.1094 11.4531C13.2969 11.3698 13.4635 11.2578 13.6094 11.1172C13.7552 10.9766 13.8698 10.8099 13.9531 10.6172C14.0365 10.4245 14.0781 10.2188 14.0781 10C14.0781 9.78125 14.0365 9.57812 13.9531 9.39062C13.8698 9.20312 13.7578 9.03646 13.6172 8.89062C13.4766 8.74479 13.3099 8.63021 13.1172 8.54688C12.9245 8.46354 12.7188 8.42188 12.5 8.42188Z" fill="black"/>
</svg>
