<svg width="17" height="20" viewBox="0 0 17 20" fill="none" xmlns="http://www.w3.org/2000/svg">
<path d="M7.66667 19.1667C7.13958 19.1667 6.68853 18.9792 6.3135 18.6041C5.93847 18.2291 5.75064 17.7777 5.75 17.25H9.58333C9.58333 17.7771 9.39582 18.2285 9.02079 18.6041C8.64576 18.9798 8.19439 19.1673 7.66667 19.1667ZM0 16.2917V14.375H1.91667V7.66667C1.91667 6.34097 2.31597 5.16318 3.11458 4.13329C3.91319 3.10341 4.95139 2.42842 6.22917 2.10834V1.4375C6.22917 1.0382 6.36908 0.698947 6.64892 0.419752C6.92875 0.140558 7.268 0.000641067 7.66667 2.17803e-06C8.06533 -0.000636711 8.4049 0.13928 8.68537 0.419752C8.96585 0.700224 9.10544 1.03947 9.10417 1.4375V1.74896C8.92847 2.10035 8.80069 2.45972 8.72083 2.82709C8.64097 3.19445 8.60903 3.56979 8.625 3.95313C8.46528 3.92118 8.30939 3.89307 8.15733 3.86879C8.00528 3.84452 7.84172 3.8327 7.66667 3.83334C6.6125 3.83334 5.71007 4.20868 4.95937 4.95938C4.20868 5.71007 3.83333 6.6125 3.83333 7.66667V14.375H11.5V8.21771C11.7875 8.34549 12.0951 8.44547 12.4229 8.51767C12.7506 8.58986 13.0819 8.62564 13.4167 8.625V14.375H15.3333V16.2917H0ZM13.4167 6.70834C12.6181 6.70834 11.9392 6.42882 11.3802 5.86979C10.8212 5.31077 10.5417 4.63195 10.5417 3.83334C10.5417 3.03472 10.8212 2.35591 11.3802 1.79688C11.9392 1.23785 12.6181 0.958336 13.4167 0.958336C14.2153 0.958336 14.8941 1.23785 15.4531 1.79688C16.0122 2.35591 16.2917 3.03472 16.2917 3.83334C16.2917 4.63195 16.0122 5.31077 15.4531 5.86979C14.8941 6.42882 14.2153 6.70834 13.4167 6.70834Z" fill="black"/>
</svg>
