<svg width="19" height="16" viewBox="0 0 19 16" fill="none" xmlns="http://www.w3.org/2000/svg">
<path d="M17.8125 14.4375H16.625V6.12498C16.625 5.81003 16.4999 5.50799 16.2772 5.28529C16.0545 5.06259 15.7524 4.93748 15.4375 4.93748H10.6875V1.37498C10.6876 1.15994 10.6294 0.948899 10.519 0.764381C10.4085 0.579863 10.2501 0.428794 10.0605 0.327299C9.8709 0.225804 9.65732 0.177692 9.44253 0.188098C9.22775 0.198504 9.01982 0.267038 8.84094 0.386385L2.90344 4.34373C2.74056 4.4524 2.60707 4.59966 2.51488 4.7724C2.42268 4.94514 2.37463 5.138 2.375 5.33381V14.4375H1.1875C1.03003 14.4375 0.879005 14.5 0.767655 14.6114C0.656306 14.7227 0.59375 14.8738 0.59375 15.0312C0.59375 15.1887 0.656306 15.3397 0.767655 15.4511C0.879005 15.5624 1.03003 15.625 1.1875 15.625H17.8125C17.97 15.625 18.121 15.5624 18.2323 15.4511C18.3437 15.3397 18.4062 15.1887 18.4062 15.0312C18.4062 14.8738 18.3437 14.7227 18.2323 14.6114C18.121 14.5 17.97 14.4375 17.8125 14.4375ZM15.4375 6.12498V14.4375H10.6875V6.12498H15.4375ZM3.5625 5.33381L9.5 1.37498V14.4375H3.5625V5.33381ZM8.3125 7.31248V8.49998C8.3125 8.65745 8.24994 8.80847 8.13859 8.91982C8.02725 9.03117 7.87622 9.09373 7.71875 9.09373C7.56128 9.09373 7.41025 9.03117 7.29891 8.91982C7.18756 8.80847 7.125 8.65745 7.125 8.49998V7.31248C7.125 7.15501 7.18756 7.00398 7.29891 6.89263C7.41025 6.78128 7.56128 6.71873 7.71875 6.71873C7.87622 6.71873 8.02725 6.78128 8.13859 6.89263C8.24994 7.00398 8.3125 7.15501 8.3125 7.31248ZM5.9375 7.31248V8.49998C5.9375 8.65745 5.87494 8.80847 5.76359 8.91982C5.65225 9.03117 5.50122 9.09373 5.34375 9.09373C5.18628 9.09373 5.03525 9.03117 4.92391 8.91982C4.81256 8.80847 4.75 8.65745 4.75 8.49998V7.31248C4.75 7.15501 4.81256 7.00398 4.92391 6.89263C5.03525 6.78128 5.18628 6.71873 5.34375 6.71873C5.50122 6.71873 5.65225 6.78128 5.76359 6.89263C5.87494 7.00398 5.9375 7.15501 5.9375 7.31248ZM5.9375 11.4687V12.6562C5.9375 12.8137 5.87494 12.9647 5.76359 13.0761C5.65225 13.1874 5.50122 13.25 5.34375 13.25C5.18628 13.25 5.03525 13.1874 4.92391 13.0761C4.81256 12.9647 4.75 12.8137 4.75 12.6562V11.4687C4.75 11.3113 4.81256 11.1602 4.92391 11.0489C5.03525 10.9375 5.18628 10.875 5.34375 10.875C5.50122 10.875 5.65225 10.9375 5.76359 11.0489C5.87494 11.1602 5.9375 11.3113 5.9375 11.4687ZM8.3125 11.4687V12.6562C8.3125 12.8137 8.24994 12.9647 8.13859 13.0761C8.02725 13.1874 7.87622 13.25 7.71875 13.25C7.56128 13.25 7.41025 13.1874 7.29891 13.0761C7.18756 12.9647 7.125 12.8137 7.125 12.6562V11.4687C7.125 11.3113 7.18756 11.1602 7.29891 11.0489C7.41025 10.9375 7.56128 10.875 7.71875 10.875C7.87622 10.875 8.02725 10.9375 8.13859 11.0489C8.24994 11.1602 8.3125 11.3113 8.3125 11.4687Z" fill="black"/>
</svg>
