<svg width="16" height="18" viewBox="0 0 16 18" fill="none" xmlns="http://www.w3.org/2000/svg">
<path d="M13.0003 10.4286C13.5686 10.4286 14.1136 10.6544 14.5155 11.0562C14.9174 11.4581 15.1431 12.0031 15.1431 12.5714V13.0822C15.1431 15.6372 12.136 17.5714 8.00028 17.5714C3.86456 17.5714 0.857422 15.7379 0.857422 13.0822V12.5714C0.857422 12.0031 1.08319 11.4581 1.48505 11.0562C1.88691 10.6544 2.43196 10.4286 3.00028 10.4286H13.0003ZM13.0003 11.5H3.00028C2.73405 11.5 2.47735 11.5991 2.2802 11.7781C2.08306 11.957 1.95959 12.2029 1.93385 12.4679L1.92885 12.5714V13.0822C1.92885 14.9922 4.34956 16.5 8.00028 16.5C11.5189 16.5 13.9681 14.9964 14.0689 13.1972L14.0717 13.0822V12.5714C14.0717 12.3052 13.9726 12.0485 13.7937 11.8514C13.6148 11.6542 13.3688 11.5308 13.1039 11.505L13.0003 11.5ZM8.00028 0.428589C8.56309 0.428589 9.12038 0.539442 9.64035 0.754819C10.1603 0.970197 10.6328 1.28588 11.0307 1.68385C11.4287 2.08181 11.7444 2.55426 11.9598 3.07423C12.1751 3.5942 12.286 4.15149 12.286 4.7143C12.286 5.27711 12.1751 5.83441 11.9598 6.35437C11.7444 6.87434 11.4287 7.3468 11.0307 7.74476C10.6328 8.14273 10.1603 8.45841 9.64035 8.67379C9.12038 8.88916 8.56309 9.00002 8.00028 9.00002C6.86364 9.00002 5.77355 8.54849 4.96982 7.74476C4.16609 6.94103 3.71456 5.85094 3.71456 4.7143C3.71456 3.57766 4.16609 2.48757 4.96982 1.68385C5.77355 0.880118 6.86364 0.428589 8.00028 0.428589ZM8.00028 1.50002C7.1478 1.50002 6.33023 1.83866 5.72744 2.44146C5.12464 3.04426 4.78599 3.86182 4.78599 4.7143C4.78599 5.56678 5.12464 6.38435 5.72744 6.98715C6.33023 7.58994 7.1478 7.92859 8.00028 7.92859C8.85276 7.92859 9.67033 7.58994 10.2731 6.98715C10.8759 6.38435 11.2146 5.56678 11.2146 4.7143C11.2146 3.86182 10.8759 3.04426 10.2731 2.44146C9.67033 1.83866 8.85276 1.50002 8.00028 1.50002Z" fill="black"/>
</svg>
