<svg width="16" height="17" viewBox="0 0 16 17" fill="none" xmlns="http://www.w3.org/2000/svg">
<path d="M8.18557 12.9957L7.88214 12.764L7.57872 12.9957L3.87872 15.8207L3.87203 15.8258L3.86552 15.8311C3.76701 15.9117 3.68394 15.9345 3.60059 15.9315C3.47415 15.9268 3.3774 15.8923 3.29497 15.8343C3.20611 15.7717 3.13207 15.685 3.0747 15.5598C3.0447 15.4944 3.03298 15.4138 3.07859 15.2847L3.08198 15.2751L3.08498 15.2653L4.50998 10.6403L4.61642 10.2949L4.3217 10.0855L0.696697 7.5105L0.690657 7.5062L0.684493 7.5021C0.581195 7.43323 0.53822 7.36251 0.519338 7.28069C0.487936 7.14462 0.497829 7.04432 0.52704 6.96399C0.560646 6.87157 0.622395 6.77859 0.731409 6.68571C0.800978 6.62644 0.883226 6.59277 1.00571 6.59312H1.00714H5.48214H5.85342L5.96078 6.23771L7.40683 1.4508C7.46075 1.305 7.53236 1.21803 7.61091 1.16188C7.70826 1.09229 7.79462 1.06783 7.88047 1.06812C7.9683 1.06841 8.05691 1.09385 8.15613 1.16413C8.23394 1.21925 8.30452 1.30474 8.35706 1.44948L9.8035 6.23771L9.91087 6.59312H10.2821H14.7571C14.8801 6.59312 14.9629 6.6271 15.0329 6.68671C15.1423 6.77991 15.204 6.8728 15.2374 6.96454C15.2663 7.0436 15.2765 7.1437 15.2449 7.28102C15.2259 7.36353 15.183 7.43365 15.0808 7.50146L15.0741 7.50587L15.0676 7.5105L11.4426 10.0855L11.1479 10.2949L11.2543 10.6403L12.6793 15.2653L12.6826 15.2759L12.6863 15.2863C12.7319 15.4139 12.7206 15.4942 12.6903 15.5604C12.6332 15.6856 12.5594 15.7714 12.4712 15.833C12.3869 15.8917 12.2887 15.9264 12.1621 15.9315C12.081 15.9348 11.9985 15.9128 11.8989 15.8313L11.8923 15.8259L11.8856 15.8207L8.18557 12.9957Z" fill="black" fill-opacity="0.9" stroke="black"/>
</svg>
