<svg width="16" height="16" viewBox="0 0 16 16" fill="none" xmlns="http://www.w3.org/2000/svg">
<path d="M7.99992 4.5V5.9M7.99845 1C5.78205 1 4.34522 2.4133 2.64607 2.9285C1.95492 3.1385 1.60934 3.2428 1.46934 3.3905C1.32934 3.5375 1.28882 3.7538 1.20703 4.185C0.330194 8.8022 2.24597 13.0708 6.81435 14.7326C7.30435 14.9111 7.54972 15 8.00066 15C8.45161 15 8.69771 14.9104 9.18844 14.7319C13.7561 13.0708 15.6697 8.8022 14.7928 4.185C14.711 3.7538 14.6698 3.5375 14.5298 3.3898C14.3898 3.2421 14.0449 3.1378 13.3538 2.9285C11.6539 2.4133 10.2149 1 7.99845 1Z" stroke="black" stroke-linecap="round" stroke-linejoin="round"/>
</svg>
