<svg width="14" height="14" viewBox="0 0 14 14" fill="none" xmlns="http://www.w3.org/2000/svg">
<path d="M9.8 0C12.1196 0 14 1.81179 14 4.04669C14 4.71596 13.8665 5.41953 13.5994 6.15741L12.4799 5.02193C12.5478 4.73367 12.5868 4.45652 12.5972 4.19075L12.6 4.04669C12.6 2.61586 11.3628 1.42381 9.8 1.42381C9.26723 1.42381 8.76123 1.56297 8.32623 1.81676L6.36628 3.73797C6.09292 4.01599 6.09292 4.46673 6.36628 4.74475C6.63964 5.02279 7.08287 5.02279 7.35623 4.74475L9.25594 2.73543L10.2088 3.71761L12.9116 6.4662C13.7317 7.30027 13.7317 8.65257 12.9116 9.48662C12.6491 9.75352 12.3345 9.93503 12.0012 10.0311L11.9665 10.0402C12.1135 10.7269 11.9245 11.4729 11.3997 12.0067C10.8594 12.5562 10.098 12.7437 9.40688 12.5692C9.31202 12.8994 9.13522 13.2037 8.87738 13.4426C8.14078 14.1253 7.06476 14.1886 6.25901 13.5899L6.13492 13.4803L5.58987 12.9832C1.86329 9.52559 0 6.54677 0 4.04669C0 1.81175 1.88042 0 4.20003 0C5.27602 0 6.2575 0.389842 7.00061 1.03094C7.74315 0.389608 8.72435 0 9.8 0ZM4.20003 1.42381C2.6372 1.42381 1.40001 2.61586 1.40001 4.04669C1.40001 6.04779 3.07043 8.71828 6.52466 11.9232L6.83901 12.2101C7.11594 12.4943 7.62854 12.7144 7.92651 12.4222C8.19715 12.1567 8.16945 11.7874 7.95719 11.5136L7.52511 11.0653L5.90756 9.42025L5.8778 9.39365L6.8795 8.37419L8.32941 9.86999L8.87738 10.4271C8.91458 10.4649 8.95032 10.5041 8.98452 10.5448L9.33426 10.9072C9.69874 11.2779 10.1506 11.2917 10.424 11.0137C10.6973 10.7356 10.6887 10.2711 10.3242 9.90039L8.64999 8.1727L7.8644 7.37323L8.85418 6.36585L9.36058 6.88107C9.41187 6.92428 9.46114 6.96992 9.50824 7.01782L10.1466 7.68147L10.9317 8.47981C11.2051 8.75783 11.6483 8.75783 11.9216 8.47981C12.195 8.2018 12.195 7.75105 11.9216 7.473L9.28692 4.79403L8.34618 5.75155C7.52607 6.58563 6.19644 6.58563 5.37632 5.75155C4.55624 4.91751 4.55624 3.56521 5.37632 2.73116L6.03123 2.06454L5.96367 2.01021C5.47079 1.63445 4.85553 1.42381 4.20003 1.42381Z" fill="black"/>
</svg>
