<svg width="18" height="18" viewBox="0 0 18 18" fill="none" xmlns="http://www.w3.org/2000/svg">
<g clip-path="url(#clip0_1016_8262)">
<path d="M2.2503 12.6V11.25H0.562797C0.413613 11.25 0.270539 11.1907 0.165049 11.0852C0.0595601 10.9797 0.000296875 10.8367 0.000296875 10.6875C0.000296875 10.5383 0.0595601 10.3952 0.165049 10.2897C0.270539 10.1842 0.413613 10.125 0.562797 10.125H2.2503V7.87498H0.562797C0.413613 7.87498 0.270539 7.81572 0.165049 7.71023C0.0595601 7.60474 0.000296875 7.46167 0.000296875 7.31248C0.000296875 7.1633 0.0595601 7.02022 0.165049 6.91473C0.270539 6.80925 0.413613 6.74998 0.562797 6.74998H2.2503V5.39998C2.2503 5.07373 2.25105 4.77373 2.25255 4.49998H0.565047C0.415863 4.49998 0.272789 4.44072 0.167299 4.33523C0.0618101 4.22974 0.00254688 4.08667 0.00254688 3.93748C0.00254688 3.7883 0.0618101 3.64522 0.167299 3.53973C0.272789 3.43425 0.415863 3.37498 0.565047 3.37498H2.2863C2.3268 2.71348 2.41792 2.23873 2.62155 1.84498C2.94627 1.21146 3.46178 0.69595 4.0953 0.371232C4.81755 0.00335697 5.7603 0.00335693 7.6503 0.00335693H11.4753C13.3653 0.00335693 14.3103 0.00335697 15.0303 0.371232C15.6638 0.69595 16.1793 1.21146 16.504 1.84498C16.7088 2.24548 16.7988 2.71573 16.8393 3.37498H17.4344C17.5836 3.37498 17.7267 3.43425 17.8322 3.53973C17.9377 3.64522 17.9969 3.7883 17.9969 3.93748V6.18748C17.9969 6.33667 17.9377 6.47974 17.8322 6.58523C17.7267 6.69072 17.5836 6.74998 17.4344 6.74998H16.8719V8.43748C16.8719 8.58667 16.8127 8.72974 16.7072 8.83523C16.6017 8.94072 16.4586 8.99998 16.3094 8.99998C16.1602 8.99998 16.0172 8.94072 15.9117 8.83523C15.8062 8.72974 15.7469 8.58667 15.7469 8.43748V5.39998C15.7469 4.43586 15.7458 3.77998 15.7042 3.27373C15.6637 2.78098 15.5917 2.52786 15.5017 2.35236C15.286 1.92901 14.9418 1.58482 14.5184 1.36911C14.3429 1.27911 14.0909 1.20598 13.597 1.16661C13.0908 1.12498 12.4383 1.12386 11.4708 1.12386H7.6458C6.68167 1.12386 6.0258 1.12498 5.51955 1.16661C5.0268 1.20711 4.77367 1.28023 4.59817 1.36911C4.17483 1.58482 3.83063 1.92901 3.61492 2.35236C3.52492 2.52786 3.4518 2.78098 3.41242 3.27373C3.3708 3.77998 3.36967 4.43248 3.36967 5.39998V12.6C3.36967 13.5641 3.3708 14.22 3.41242 14.7262C3.45292 15.219 3.52605 15.4721 3.61492 15.6476C3.83092 16.0706 4.17517 16.4149 4.59817 16.6309C4.77367 16.7209 5.0268 16.794 5.52067 16.8334C6.02692 16.875 6.67942 16.8761 7.64692 16.8761H8.43442C8.58361 16.8761 8.72668 16.9354 8.83217 17.0409C8.93766 17.1463 8.99692 17.2894 8.99692 17.4386C8.99692 17.5878 8.93766 17.7309 8.83217 17.8364C8.72668 17.9418 8.58361 18.0011 8.43442 18.0011H7.64692C5.75692 18.0011 4.81192 18.0011 4.09192 17.6332C3.45749 17.3098 2.94164 16.7939 2.61817 16.1595C2.4123 15.759 2.3223 15.2887 2.2818 14.6295H0.560547C0.411363 14.6295 0.268289 14.5702 0.162799 14.4647C0.0573101 14.3592 -0.00195312 14.2162 -0.00195312 14.067C-0.00195312 13.9178 0.0573101 13.7747 0.162799 13.6692C0.268289 13.5637 0.411363 13.5045 0.560547 13.5045H2.24805C2.24655 13.23 2.2458 12.93 2.2458 12.6045L2.2503 12.6Z" fill="black"/>
<path d="M13.5 8.4375C13.5 8.28832 13.4407 8.14524 13.3352 8.03975C13.2298 7.93426 13.0867 7.875 12.9375 7.875C12.7883 7.875 12.6452 7.93426 12.5398 8.03975C12.4343 8.14524 12.375 8.28832 12.375 8.4375V12.375H8.4375C8.28832 12.375 8.14524 12.4343 8.03975 12.5398C7.93426 12.6452 7.875 12.7883 7.875 12.9375C7.875 13.0867 7.93426 13.2298 8.03975 13.3352C8.14524 13.4407 8.28832 13.5 8.4375 13.5H12.375V17.4375C12.375 17.5867 12.4343 17.7298 12.5398 17.8352C12.6452 17.9407 12.7883 18 12.9375 18C13.0867 18 13.2298 17.9407 13.3352 17.8352C13.4407 17.7298 13.5 17.5867 13.5 17.4375V13.5H17.4375C17.5867 13.5 17.7298 13.4407 17.8352 13.3352C17.9407 13.2298 18 13.0867 18 12.9375C18 12.7883 17.9407 12.6452 17.8352 12.5398C17.7298 12.4343 17.5867 12.375 17.4375 12.375H13.5V8.4375Z" fill="black"/>
</g>
<defs>
<clipPath id="clip0_1016_8262">
<rect width="18" height="18" fill="white"/>
</clipPath>
</defs>
</svg>
