<svg width="17" height="18" viewBox="0 0 17 18" fill="none" xmlns="http://www.w3.org/2000/svg">
<g clip-path="url(#clip0_920_4088)">
<path fill-rule="evenodd" clip-rule="evenodd" d="M12.4667 2.76667H4.53333V0.5H3.4V2.76667H1.7C1.24913 2.76667 0.81673 2.94577 0.497918 3.26459C0.179107 3.5834 0 4.0158 0 4.46667L0 13.5333C0 13.9842 0.179107 14.4166 0.497918 14.7354C0.81673 15.0542 1.24913 15.2333 1.7 15.2333H15.3C15.7509 15.2333 16.1833 15.0542 16.5021 14.7354C16.8209 14.4166 17 13.9842 17 13.5333V4.46667C17 4.0158 16.8209 3.5834 16.5021 3.26459C16.1833 2.94577 15.7509 2.76667 15.3 2.76667H13.6V0.5H12.4667V2.76667ZM3.4 7.3C3.4 6.69884 3.63881 6.12231 4.06389 5.69723C4.48897 5.27214 5.06551 5.03333 5.66667 5.03333C6.26782 5.03333 6.84436 5.27214 7.26944 5.69723C7.69452 6.12231 7.93333 6.69884 7.93333 7.3C7.93333 7.90116 7.69452 8.47769 7.26944 8.90278C6.84436 9.32786 6.26782 9.56667 5.66667 9.56667C5.06551 9.56667 4.48897 9.32786 4.06389 8.90278C3.63881 8.47769 3.4 7.90116 3.4 7.3ZM2.6996 12.5337C2.97511 11.9827 3.39861 11.5193 3.92266 11.1954C4.44672 10.8715 5.05061 10.7 5.66667 10.7C6.28273 10.7 6.88662 10.8715 7.41067 11.1954C7.93472 11.5193 8.35823 11.9827 8.63373 12.5337L9.00773 13.2795C9.05107 13.3659 9.07154 13.4621 9.06721 13.5587C9.06288 13.6553 9.03389 13.7493 8.98299 13.8315C8.93209 13.9138 8.86098 13.9816 8.77644 14.0286C8.6919 14.0756 8.59673 14.1002 8.5 14.1H2.83333C2.7367 14.1 2.64167 14.0753 2.55728 14.0282C2.47289 13.9811 2.40195 13.9133 2.35118 13.831C2.30042 13.7488 2.27152 13.655 2.26724 13.5584C2.26296 13.4619 2.28344 13.3659 2.32673 13.2795L2.6996 12.5337ZM10.2 7.3H13.6V6.16667H10.2V7.3ZM10.2 10.7H13.6V9.56667H10.2V10.7Z" fill="black"/>
<path d="M17 16.3667V17.5H0V16.3667H17Z" fill="black"/>
</g>
<defs>
<clipPath id="clip0_920_4088">
<rect width="17" height="17" fill="white" transform="translate(0 0.5)"/>
</clipPath>
</defs>
</svg>
