<svg width="21" height="22" viewBox="0 0 21 22" fill="none" xmlns="http://www.w3.org/2000/svg">
<path d="M10.9898 18.7175C10.847 18.8201 10.6756 18.8752 10.4998 18.8752C10.324 18.8752 10.1526 18.8201 10.0098 18.7175C5.78443 15.7057 1.30006 9.51075 5.83343 5.03425C7.07798 3.80999 8.75404 3.12423 10.4998 3.125C12.2498 3.125 13.9289 3.81188 15.1662 5.03338C19.6996 9.50988 15.2152 15.704 10.9898 18.7175Z" stroke="black" stroke-width="1.5" stroke-linecap="round" stroke-linejoin="round"/>
<path d="M10.5 11C10.9641 11 11.4092 10.8156 11.7374 10.4874C12.0656 10.1592 12.25 9.71413 12.25 9.25C12.25 8.78587 12.0656 8.34075 11.7374 8.01256C11.4092 7.68437 10.9641 7.5 10.5 7.5C10.0359 7.5 9.59075 7.68437 9.26256 8.01256C8.93437 8.34075 8.75 8.78587 8.75 9.25C8.75 9.71413 8.93437 10.1592 9.26256 10.4874C9.59075 10.8156 10.0359 11 10.5 11Z" stroke="black" stroke-width="1.5" stroke-linecap="round" stroke-linejoin="round"/>
</svg>
