<svg width="22" height="22" viewBox="0 0 22 22" fill="none" xmlns="http://www.w3.org/2000/svg">
<path d="M2.97949 8.47918H19.0212M6.74791 4.35418V2.52084M15.2271 4.35418V2.52084M15.8128 4.35418H6.18783C5.33692 4.35418 4.52087 4.6922 3.91919 5.29388C3.31751 5.89556 2.97949 6.71161 2.97949 7.56251V16.2708C2.97949 17.1217 3.31751 17.9378 3.91919 18.5395C4.52087 19.1412 5.33692 19.4792 6.18783 19.4792H15.8128C16.6637 19.4792 17.4798 19.1412 18.0815 18.5395C18.6831 17.9378 19.0212 17.1217 19.0212 16.2708V7.56251C19.0212 6.71161 18.6831 5.89556 18.0815 5.29388C17.4798 4.6922 16.6637 4.35418 15.8128 4.35418Z" stroke="black" stroke-width="1.5" stroke-linecap="round" stroke-linejoin="round"/>
</svg>
