<svg width="15" height="18" viewBox="0 0 15 18" fill="none" xmlns="http://www.w3.org/2000/svg">
<path d="M8.36406 17.075C10.2344 14.9434 14.5 9.77695 14.5 6.875C14.5 3.35547 11.3646 0.5 7.5 0.5C3.63542 0.5 0.5 3.35547 0.5 6.875C0.5 9.77695 4.76562 14.9434 6.63594 17.075C7.08437 17.583 7.91562 17.583 8.36406 17.075ZM7.5 4.75C8.11884 4.75 8.71233 4.97388 9.14992 5.3724C9.5875 5.77091 9.83333 6.31141 9.83333 6.875C9.83333 7.43859 9.5875 7.97909 9.14992 8.3776C8.71233 8.77612 8.11884 9 7.5 9C6.88116 9 6.28767 8.77612 5.85008 8.3776C5.4125 7.97909 5.16667 7.43859 5.16667 6.875C5.16667 6.31141 5.4125 5.77091 5.85008 5.3724C6.28767 4.97388 6.88116 4.75 7.5 4.75Z" fill="#171766"/>
</svg>
