<svg width="13" height="15" viewBox="0 0 13 15" fill="none" xmlns="http://www.w3.org/2000/svg">
<g clip-path="url(#clip0_869_868)">
<path d="M4.15625 0.692383C4.15625 0.328711 3.86367 0.0361328 3.5 0.0361328C3.13633 0.0361328 2.84375 0.328711 2.84375 0.692383V1.78613H1.75C0.784766 1.78613 0 2.5709 0 3.53613V3.97363V5.28613V12.2861C0 13.2514 0.784766 14.0361 1.75 14.0361H10.5C11.4652 14.0361 12.25 13.2514 12.25 12.2861V5.28613V3.97363V3.53613C12.25 2.5709 11.4652 1.78613 10.5 1.78613H9.40625V0.692383C9.40625 0.328711 9.11367 0.0361328 8.75 0.0361328C8.38633 0.0361328 8.09375 0.328711 8.09375 0.692383V1.78613H4.15625V0.692383ZM1.3125 5.28613H10.9375V12.2861C10.9375 12.5268 10.7406 12.7236 10.5 12.7236H1.75C1.50937 12.7236 1.3125 12.5268 1.3125 12.2861V5.28613Z" fill="white"/>
</g>
<defs>
<clipPath id="clip0_869_868">
<path d="M0 0.0361328H12.25V14.0361H0V0.0361328Z" fill="white"/>
</clipPath>
</defs>
</svg>
