<svg width="20" height="20" viewBox="0 0 20 20" fill="none" xmlns="http://www.w3.org/2000/svg">
<path d="M5.68255 1.88467L6.86826 1.52753C7.40802 1.36469 7.98858 1.40384 8.50159 1.63767C9.01459 1.8715 9.42497 2.28403 9.65612 2.79825L10.394 4.43967C10.5928 4.88186 10.6482 5.3752 10.5524 5.85047C10.4565 6.32574 10.2143 6.75907 9.85969 7.08967L8.57041 8.29182C8.55498 8.30714 8.54197 8.32472 8.53183 8.34396C8.39683 8.61967 8.60183 9.3561 9.24398 10.469C9.96826 11.7232 10.5275 12.219 10.7868 12.1425L12.479 11.6247C12.9424 11.4832 13.4385 11.4902 13.8977 11.6448C14.3569 11.7994 14.7562 12.0938 15.0397 12.4868L16.0883 13.939C16.4175 14.3949 16.57 14.9549 16.5174 15.5148C16.4649 16.0747 16.2108 16.5965 15.8025 16.9832L14.9004 17.8368C14.5867 18.134 14.2057 18.3508 13.7901 18.4689C13.3744 18.5869 12.9363 18.6026 12.5133 18.5147C10.0011 17.9918 7.75041 15.969 5.74183 12.4904C3.73255 9.00967 3.10612 6.04539 3.91326 3.60753C4.04837 3.19939 4.27974 2.82977 4.58782 2.5299C4.89589 2.23003 5.27091 2.00872 5.68255 1.88467ZM5.99326 2.91039C5.74627 2.98478 5.52081 3.11754 5.33594 3.29744C5.15107 3.47733 5.01222 3.69909 4.93112 3.94396C4.23541 6.04467 4.79898 8.71325 6.67041 11.9547C8.54041 15.194 10.5675 17.0154 12.7325 17.4654C12.9864 17.5181 13.2492 17.5086 13.4986 17.4377C13.748 17.3668 13.9765 17.2366 14.1647 17.0582L15.0661 16.2054C15.286 15.9972 15.4229 15.7162 15.4513 15.4147C15.4797 15.1132 15.3976 14.8117 15.2204 14.5661L14.1718 13.1132C14.0192 12.9017 13.8043 12.7432 13.557 12.6599C13.3098 12.5767 13.0428 12.5728 12.7933 12.649L11.0968 13.1682C10.1583 13.4475 9.27541 12.6654 8.31683 11.004C7.50469 9.59825 7.22326 8.58253 7.57041 7.87325C7.63802 7.73515 7.72802 7.61348 7.84041 7.50825L9.12969 6.3061C9.32072 6.12809 9.45121 5.89472 9.50283 5.63876C9.55446 5.38281 9.52464 5.1171 9.41755 4.87896L8.67898 3.23825C8.55452 2.96129 8.3335 2.7391 8.05721 2.61318C7.78091 2.48726 7.46823 2.46621 7.17755 2.55396L5.99326 2.91039Z" fill="#4A4A4A"/>
</svg>
