<svg width="22" height="22" viewBox="0 0 22 22" fill="none" xmlns="http://www.w3.org/2000/svg">
<path d="M20.625 18.0469H19.0781V8.24998C19.0781 7.93089 18.9514 7.62487 18.7257 7.39924C18.5001 7.17361 18.1941 7.04686 17.875 7.04686H12.2031V2.74998C12.203 2.53222 12.1438 2.31857 12.0319 2.13181C11.9199 1.94505 11.7593 1.79218 11.5673 1.6895C11.3753 1.58683 11.159 1.53819 10.9415 1.54879C10.724 1.55938 10.5134 1.62881 10.3323 1.74967L3.45727 6.33272C3.29251 6.44264 3.15745 6.59153 3.06405 6.76618C2.97065 6.94083 2.92182 7.13583 2.92188 7.33389V18.0469H1.375C1.23825 18.0469 1.1071 18.1012 1.0104 18.1979C0.9137 18.2946 0.859375 18.4257 0.859375 18.5625C0.859375 18.6992 0.9137 18.8304 1.0104 18.9271C1.1071 19.0238 1.23825 19.0781 1.375 19.0781H20.625C20.7618 19.0781 20.8929 19.0238 20.9896 18.9271C21.0863 18.8304 21.1406 18.6992 21.1406 18.5625C21.1406 18.4257 21.0863 18.2946 20.9896 18.1979C20.8929 18.1012 20.7618 18.0469 20.625 18.0469ZM17.875 8.07811C17.9206 8.07811 17.9643 8.09621 17.9965 8.12845C18.0288 8.16068 18.0469 8.2044 18.0469 8.24998V18.0469H12.2031V8.07811H17.875ZM3.95312 7.33389C3.95318 7.30566 3.96018 7.27787 3.97352 7.25299C3.98686 7.22811 4.00613 7.2069 4.02961 7.19123L10.9046 2.60732C10.9305 2.59007 10.9605 2.58015 10.9916 2.57863C11.0226 2.57711 11.0535 2.58403 11.0809 2.59867C11.1084 2.61331 11.1313 2.63511 11.1473 2.66176C11.1633 2.6884 11.1718 2.71889 11.1719 2.74998V18.0469H3.95312V7.33389ZM9.45312 9.62498V11C9.45312 11.1367 9.3988 11.2679 9.3021 11.3646C9.2054 11.4613 9.07425 11.5156 8.9375 11.5156C8.80075 11.5156 8.6696 11.4613 8.5729 11.3646C8.4762 11.2679 8.42188 11.1367 8.42188 11V9.62498C8.42188 9.48823 8.4762 9.35708 8.5729 9.26038C8.6696 9.16368 8.80075 9.10936 8.9375 9.10936C9.07425 9.10936 9.2054 9.16368 9.3021 9.26038C9.3988 9.35708 9.45312 9.48823 9.45312 9.62498ZM6.70312 9.62498V11C6.70312 11.1367 6.6488 11.2679 6.5521 11.3646C6.4554 11.4613 6.32425 11.5156 6.1875 11.5156C6.05075 11.5156 5.9196 11.4613 5.8229 11.3646C5.7262 11.2679 5.67188 11.1367 5.67188 11V9.62498C5.67188 9.48823 5.7262 9.35708 5.8229 9.26038C5.9196 9.16368 6.05075 9.10936 6.1875 9.10936C6.32425 9.10936 6.4554 9.16368 6.5521 9.26038C6.6488 9.35708 6.70312 9.48823 6.70312 9.62498ZM6.70312 14.4375V15.8125C6.70312 15.9492 6.6488 16.0804 6.5521 16.1771C6.4554 16.2738 6.32425 16.3281 6.1875 16.3281C6.05075 16.3281 5.9196 16.2738 5.8229 16.1771C5.7262 16.0804 5.67188 15.9492 5.67188 15.8125V14.4375C5.67188 14.3007 5.7262 14.1696 5.8229 14.0729C5.9196 13.9762 6.05075 13.9219 6.1875 13.9219C6.32425 13.9219 6.4554 13.9762 6.5521 14.0729C6.6488 14.1696 6.70312 14.3007 6.70312 14.4375ZM9.45312 14.4375V15.8125C9.45312 15.9492 9.3988 16.0804 9.3021 16.1771C9.2054 16.2738 9.07425 16.3281 8.9375 16.3281C8.80075 16.3281 8.6696 16.2738 8.5729 16.1771C8.4762 16.0804 8.42188 15.9492 8.42188 15.8125V14.4375C8.42188 14.3007 8.4762 14.1696 8.5729 14.0729C8.6696 13.9762 8.80075 13.9219 8.9375 13.9219C9.07425 13.9219 9.2054 13.9762 9.3021 14.0729C9.3988 14.1696 9.45312 14.3007 9.45312 14.4375Z" fill="black"/>
</svg>
