<svg width="15" height="16" viewBox="0 0 15 16" fill="none" xmlns="http://www.w3.org/2000/svg">
<g clip-path="url(#clip0_975_1263)">
<path d="M3.5 2.5H4V2V1C4 0.723017 4.22302 0.5 4.5 0.5C4.77698 0.5 5 0.723017 5 1V2V2.5H5.5H9.5H10V2V1C10 0.723017 10.223 0.5 10.5 0.5C10.777 0.5 11 0.723017 11 1V2V2.5H11.5H13C13.552 2.5 14 2.94802 14 3.5V4.5H1V3.5C1 2.94802 1.44802 2.5 2 2.5H3.5ZM1 14.5V6.5H14V14.5C14 15.052 13.552 15.5 13 15.5H2C1.44802 15.5 1 15.052 1 14.5Z" fill="#171766" stroke="black"/>
</g>
<defs>
<clipPath id="clip0_975_1263">
<path d="M0.5 0H14.5V16H0.5V0Z" fill="white"/>
</clipPath>
</defs>
</svg>
