<svg width="21" height="27" viewBox="0 0 21 27" fill="none" xmlns="http://www.w3.org/2000/svg">
<path fill-rule="evenodd" clip-rule="evenodd" d="M12.0828 1.50008C12.0828 1.14646 11.9423 0.807321 11.6923 0.557272C11.4422 0.307224 11.1031 0.166748 10.7495 0.166748C10.3959 0.166748 10.0567 0.307224 9.80668 0.557272C9.55663 0.807321 9.41615 1.14646 9.41615 1.50008V2.50008H8.67349C7.24419 2.49999 5.86859 3.04461 4.82672 4.02306C3.78485 5.00152 3.15503 6.34026 3.06549 7.76675L2.77082 12.4787C2.65691 14.275 2.05381 16.0059 1.02682 17.4841C0.814331 17.7895 0.684496 18.1447 0.649943 18.5152C0.61539 18.8856 0.677295 19.2587 0.829636 19.5982C0.981978 19.9376 1.21957 20.2319 1.51931 20.4523C1.81905 20.6727 2.17073 20.8118 2.54015 20.8561L7.08282 21.4001V22.8334C7.08282 23.8059 7.46913 24.7385 8.15676 25.4261C8.84439 26.1138 9.77703 26.5001 10.7495 26.5001C11.7219 26.5001 12.6546 26.1138 13.3422 25.4261C14.0298 24.7385 14.4162 23.8059 14.4162 22.8334V21.4001L18.9588 20.8547C19.328 20.8104 19.6795 20.6712 19.979 20.4509C20.2786 20.2305 20.516 19.9365 20.6683 19.5972C20.8207 19.258 20.8826 18.8851 20.8483 18.5148C20.8139 18.1446 20.6843 17.7895 20.4722 17.4841C19.4452 16.0059 18.8421 14.275 18.7282 12.4787L18.4335 7.76808C18.3443 6.34136 17.7146 5.00229 16.6727 4.02355C15.6308 3.04481 14.255 2.50001 12.8255 2.50008H12.0828V1.50008ZM8.67349 4.50008C7.75292 4.49997 6.86691 4.85071 6.19586 5.48089C5.5248 6.11107 5.11915 6.97332 5.06149 7.89208L4.76815 12.6041C4.63106 14.7651 3.9053 16.8474 2.66949 18.6254C2.65411 18.6475 2.64471 18.6732 2.6422 18.7C2.63969 18.7268 2.64415 18.7538 2.65516 18.7783C2.66616 18.8029 2.68333 18.8242 2.705 18.8401C2.72667 18.8561 2.7521 18.8662 2.77882 18.8694L7.76149 19.4681C9.74682 19.7054 11.7522 19.7054 13.7375 19.4681L18.7202 18.8694C18.7469 18.8662 18.7723 18.8561 18.794 18.8401C18.8156 18.8242 18.8328 18.8029 18.8438 18.7783C18.8548 18.7538 18.8593 18.7268 18.8568 18.7C18.8543 18.6732 18.8449 18.6475 18.8295 18.6254C17.5941 16.8472 16.8688 14.7649 16.7322 12.6041L16.4375 7.89208C16.3798 6.97332 15.9742 6.11107 15.3031 5.48089C14.6321 4.85071 13.7461 4.49997 12.8255 4.50008H8.67349ZM10.7495 24.5001C9.82949 24.5001 9.08282 23.7534 9.08282 22.8334V21.8334H12.4162V22.8334C12.4162 23.7534 11.6695 24.5001 10.7495 24.5001Z" fill="#4A4A4A" fill-opacity="0.6"/>
</svg>
