<svg width="25" height="25" viewBox="0 0 25 25" fill="none" xmlns="http://www.w3.org/2000/svg">
<path d="M11.5 18.5C11.5 18.6989 11.579 18.8897 11.7197 19.0303C11.8603 19.171 12.0511 19.25 12.25 19.25C12.4489 19.25 12.6397 19.171 12.7803 19.0303C12.921 18.8897 13 18.6989 13 18.5V15.5C13 15.3011 12.921 15.1103 12.7803 14.9697C12.6397 14.829 12.4489 14.75 12.25 14.75C12.0511 14.75 11.8603 14.829 11.7197 14.9697C11.579 15.1103 11.5 15.3011 11.5 15.5V18.5Z" fill="#4A4A4A" fill-opacity="0.6"/>
<path fill-rule="evenodd" clip-rule="evenodd" d="M12.25 1.75C11.542 1.75 10.899 1.953 10.2 2.292C9.526 2.62 8.746 3.104 7.773 3.708L5.706 4.991C4.786 5.563 4.047 6.021 3.479 6.456C2.89 6.906 2.438 7.366 2.111 7.963C1.785 8.558 1.639 9.192 1.568 9.941C1.5 10.666 1.5 11.554 1.5 12.667V14.28C1.5 16.184 1.5 17.687 1.653 18.862C1.809 20.067 2.139 21.04 2.883 21.809C3.63 22.582 4.58 22.928 5.758 23.091C6.898 23.25 8.356 23.25 10.192 23.25H14.308C16.144 23.25 17.602 23.25 18.742 23.091C19.919 22.928 20.87 22.582 21.618 21.809C22.361 21.04 22.691 20.067 22.848 18.862C23 17.687 23 16.184 23 14.28V12.667C23 11.554 23 10.667 22.932 9.941C22.862 9.191 22.715 8.558 22.389 7.963C22.062 7.366 21.609 6.907 21.021 6.456C20.453 6.02 19.715 5.563 18.794 4.991L16.727 3.708C15.754 3.104 14.974 2.62 14.299 2.292C13.602 1.952 12.959 1.75 12.25 1.75ZM8.53 5.004C9.545 4.374 10.26 3.932 10.857 3.641C11.438 3.358 11.85 3.25 12.25 3.25C12.65 3.25 13.062 3.358 13.643 3.641C14.241 3.931 14.955 4.374 15.97 5.004L17.97 6.245C18.931 6.842 19.606 7.261 20.11 7.647C20.599 8.022 20.88 8.331 21.073 8.683C21.266 9.036 21.379 9.449 21.438 10.081C21.499 10.729 21.5 11.546 21.5 12.704V14.225C21.5 16.195 21.498 17.601 21.36 18.668C21.224 19.716 20.967 20.324 20.54 20.767C20.115 21.206 19.537 21.467 18.536 21.606C17.51 21.748 16.157 21.75 14.25 21.75H10.25C8.342 21.75 6.99 21.748 5.964 21.606C4.963 21.466 4.385 21.206 3.961 20.766C3.533 20.324 3.276 19.716 3.141 18.668C3.001 17.601 3 16.196 3 14.225V12.704C3 11.546 3 10.729 3.062 10.081C3.121 9.449 3.234 9.036 3.427 8.683C3.62 8.331 3.901 8.022 4.391 7.647C4.894 7.261 5.569 6.842 6.53 6.245L8.53 5.004Z" fill="#4A4A4A" fill-opacity="0.6"/>
</svg>
