<svg width="21" height="20" viewBox="0 0 21 20" fill="none" xmlns="http://www.w3.org/2000/svg">
<path fill-rule="evenodd" clip-rule="evenodd" d="M10.5 2.37504C9.93472 2.37505 9.38454 2.55755 8.93131 2.89538C8.47808 3.2332 8.14601 3.70831 7.9845 4.25003H13.0155C12.854 3.70831 12.5219 3.2332 12.0687 2.89538C11.6155 2.55755 11.0653 2.37505 10.5 2.37504ZM7.053 1.55304C6.32961 2.27632 5.85207 3.20883 5.688 4.21853L5.694 4.32053V19.9295C5.694 19.9535 5.693 19.977 5.691 20H15.309L15.306 19.9295V4.32053L15.312 4.21853C15.1681 3.33274 14.7825 2.50385 14.1976 1.82319C13.6128 1.14253 12.8514 0.636509 11.9974 0.360879C11.1434 0.0852499 10.2298 0.050707 9.3574 0.261056C8.48499 0.471405 7.68758 0.918483 7.053 1.55304ZM17.178 4.25003L17.181 4.32053V19.9295C17.181 19.9535 17.18 19.977 17.178 20H17.25C17.7425 20 18.2301 19.903 18.6851 19.7146C19.14 19.5261 19.5534 19.2499 19.9016 18.9017C20.2499 18.5535 20.5261 18.1401 20.7145 17.6851C20.903 17.2301 21 16.7425 21 16.25V8.00003C21 7.00547 20.6049 6.05165 19.9016 5.34838C19.1984 4.64512 18.2446 4.25003 17.25 4.25003H17.178ZM3.75 4.25003H3.822L3.819 4.32053V19.9295C3.819 19.9535 3.82 19.977 3.822 20H3.75C3.25754 20 2.76991 19.903 2.31494 19.7146C1.85997 19.5261 1.44657 19.2499 1.09835 18.9017C0.75013 18.5535 0.473907 18.1401 0.285452 17.6851C0.0969966 17.2301 0 16.7425 0 16.25L0 8.00003C0 7.00547 0.395088 6.05165 1.09835 5.34838C1.80161 4.64512 2.75544 4.25003 3.75 4.25003Z" fill="black"/>
</svg>
