<svg width="16" height="16" viewBox="0 0 16 16" fill="none" xmlns="http://www.w3.org/2000/svg">
<path d="M14 6.66669C14 10.0817 10.7869 13.1397 9.06335 14.5344C8.4357 15.0423 7.5643 15.0423 6.93665 14.5344C5.21308 13.1397 2 10.0817 2 6.66669C2 5.07539 2.63214 3.54926 3.75736 2.42405C4.88258 1.29883 6.4087 0.666687 8 0.666687C9.5913 0.666687 11.1174 1.29883 12.2426 2.42405C13.3679 3.54926 14 5.07539 14 6.66669Z" fill="#716E90"/>
<path d="M8 8.66669C9.10457 8.66669 10 7.77126 10 6.66669C10 5.56212 9.10457 4.66669 8 4.66669C6.89543 4.66669 6 5.56212 6 6.66669C6 7.77126 6.89543 8.66669 8 8.66669Z" fill="white"/>
</svg>
