<svg width="16" height="18" viewBox="0 0 16 18" fill="none" xmlns="http://www.w3.org/2000/svg">
<path d="M13.0003 10.4286C13.5686 10.4286 14.1136 10.6543 14.5155 11.0562C14.9174 11.458 15.1431 12.0031 15.1431 12.5714V13.0821C15.1431 15.6371 12.136 17.5714 8.00028 17.5714C3.86456 17.5714 0.857422 15.7378 0.857422 13.0821V12.5714C0.857422 12.0031 1.08319 11.458 1.48505 11.0562C1.88691 10.6543 2.43196 10.4286 3.00028 10.4286H13.0003ZM13.0003 11.5H3.00028C2.73405 11.5 2.47735 11.5991 2.2802 11.778C2.08306 11.9569 1.95959 12.2029 1.93385 12.4678L1.92885 12.5714V13.0821C1.92885 14.9921 4.34956 16.5 8.00028 16.5C11.5189 16.5 13.9681 14.9964 14.0689 13.1971L14.0717 13.0821V12.5714C14.0717 12.3052 13.9726 12.0485 13.7937 11.8513C13.6148 11.6542 13.3688 11.5307 13.1039 11.505L13.0003 11.5ZM8.00028 0.428558C8.56309 0.428558 9.12038 0.539412 9.64035 0.754789C10.1603 0.970166 10.6328 1.28585 11.0307 1.68381C11.4287 2.08178 11.7444 2.55423 11.9598 3.0742C12.1751 3.59417 12.286 4.15146 12.286 4.71427C12.286 5.27708 12.1751 5.83438 11.9598 6.35434C11.7444 6.87431 11.4287 7.34676 11.0307 7.74473C10.6328 8.14269 10.1603 8.45838 9.64035 8.67376C9.12038 8.88913 8.56309 8.99999 8.00028 8.99999C6.86364 8.99999 5.77355 8.54846 4.96982 7.74473C4.16609 6.941 3.71456 5.85091 3.71456 4.71427C3.71456 3.57763 4.16609 2.48754 4.96982 1.68381C5.77355 0.880088 6.86364 0.428558 8.00028 0.428558ZM8.00028 1.49999C7.1478 1.49999 6.33023 1.83863 5.72744 2.44143C5.12464 3.04422 4.78599 3.86179 4.78599 4.71427C4.78599 5.56675 5.12464 6.38432 5.72744 6.98712C6.33023 7.58991 7.1478 7.92856 8.00028 7.92856C8.85276 7.92856 9.67033 7.58991 10.2731 6.98712C10.8759 6.38432 11.2146 5.56675 11.2146 4.71427C11.2146 3.86179 10.8759 3.04422 10.2731 2.44143C9.67033 1.83863 8.85276 1.49999 8.00028 1.49999Z" fill="black"/>
</svg>
