<svg width="20" height="20" viewBox="0 0 20 20" fill="none" xmlns="http://www.w3.org/2000/svg">
<g clip-path="url(#clip0_666_336)">
<path d="M19.4923 13.5058L17.4815 5.68083C16.5532 2.33583 13.4765 0 9.99983 0C6.33149 0 3.21233 2.50167 2.41899 6.075L0.576493 13.6325C0.412326 14.3717 0.592326 15.1367 1.06816 15.7308C1.54483 16.3258 2.25566 16.6667 3.01816 16.6667H5.91733C6.30483 18.5658 7.98733 20 9.99983 20C12.0123 20 13.6948 18.5658 14.0823 16.6667H17.0815C17.8698 16.6667 18.5957 16.3067 19.0723 15.6792C19.5498 15.0517 19.7015 14.2567 19.4923 13.5058ZM9.99983 19.1667C8.45149 19.1667 7.15733 18.1008 6.78483 16.6667H13.2148C12.8423 18.1008 11.5482 19.1667 9.99983 19.1667ZM18.409 15.175C18.0915 15.5933 17.6073 15.8333 17.0815 15.8333H3.01899C2.51066 15.8333 2.03649 15.6067 1.71899 15.21C1.40149 14.8133 1.28149 14.3042 1.38899 13.8217L3.23066 6.26417C3.94066 3.06667 6.72483 0.833333 9.99983 0.833333C13.1032 0.833333 15.8498 2.91833 16.6765 5.89583L18.6873 13.7208C18.8282 14.2267 18.7265 14.7567 18.409 15.175Z" fill="#4A4A4A" fill-opacity="0.6" stroke="#4A4A4A" stroke-opacity="0.6"/>
</g>
<defs>
<clipPath id="clip0_666_336">
<rect width="20" height="20" fill="white"/>
</clipPath>
</defs>
</svg>
