<svg width="24" height="24" viewBox="0 0 24 24" fill="none" xmlns="http://www.w3.org/2000/svg">
<path d="M0.583008 11.9999C0.583008 10.386 0.889452 8.86936 1.50234 7.44992C2.11523 6.03048 2.94629 4.79575 3.99551 3.74575C5.04473 2.69575 6.27945 1.8647 7.69967 1.25259C9.1199 0.640474 10.6366 0.33403 12.2497 0.333252C14.7191 0.333252 16.9214 1.01381 18.8565 2.37492C20.7916 3.73603 22.1963 5.49575 23.0705 7.65409C23.2066 7.98464 23.2117 8.3152 23.0857 8.64575C22.9597 8.97631 22.731 9.19992 22.3997 9.31659C22.0886 9.41381 21.7922 9.38464 21.5107 9.22909C21.2291 9.07353 21.0296 8.8402 20.9122 8.52909C20.4455 7.36242 19.7747 6.33186 18.8997 5.43742C18.0247 4.54297 16.9747 3.8527 15.7497 3.36659V3.83325C15.7497 4.47492 15.5214 5.02442 15.0648 5.48175C14.6083 5.93909 14.0588 6.16736 13.4163 6.16659H11.083V8.49992C11.083 8.83047 10.971 9.10775 10.747 9.33175C10.523 9.55575 10.2461 9.66736 9.91634 9.66659H7.58301V11.9999H8.74967C9.08023 11.9999 9.35751 12.1119 9.58151 12.3359C9.80551 12.5599 9.91712 12.8368 9.91634 13.1666V15.4999H8.74967L3.14967 9.89992C3.09134 10.2499 3.03806 10.5999 2.98984 10.9499C2.94162 11.2999 2.91712 11.6499 2.91634 11.9999C2.91634 14.3721 3.69917 16.443 5.26484 18.2124C6.83051 19.9819 8.79906 21.0027 11.1705 21.2749C11.4816 21.3138 11.7395 21.4453 11.944 21.6693C12.1486 21.8933 12.2505 22.1701 12.2497 22.4999C12.2489 22.8297 12.1369 23.107 11.9137 23.3318C11.6905 23.5565 11.4233 23.6487 11.1122 23.6083C8.13717 23.3166 5.63856 22.0721 3.61634 19.8749C1.59412 17.6777 0.583008 15.0527 0.583008 11.9999ZM22.0497 22.2666L19.133 19.3499C18.7247 19.5833 18.2872 19.7777 17.8205 19.9333C17.3538 20.0888 16.858 20.1666 16.333 20.1666C14.8747 20.1666 13.6353 19.6564 12.6148 18.6359C11.5944 17.6155 11.0838 16.3757 11.083 14.9166C11.0822 13.4575 11.5928 12.2181 12.6148 11.1984C13.6368 10.1788 14.8762 9.66814 16.333 9.66659C17.7898 9.66503 19.0296 10.1756 20.0523 11.1984C21.0751 12.2212 21.5853 13.4606 21.583 14.9166C21.583 15.4416 21.5052 15.9374 21.3497 16.4041C21.1941 16.8708 20.9997 17.3083 20.7663 17.7166L23.683 20.6333C23.8969 20.8471 24.0038 21.1194 24.0038 21.4499C24.0038 21.7805 23.8969 22.0527 23.683 22.2666C23.4691 22.4805 23.1969 22.5874 22.8663 22.5874C22.5358 22.5874 22.2636 22.4805 22.0497 22.2666ZM16.333 17.8333C17.1497 17.8333 17.84 17.5513 18.4038 16.9874C18.9677 16.4235 19.2497 15.7333 19.2497 14.9166C19.2497 14.0999 18.9677 13.4096 18.4038 12.8458C17.84 12.2819 17.1497 11.9999 16.333 11.9999C15.5163 11.9999 14.8261 12.2819 14.2622 12.8458C13.6983 13.4096 13.4163 14.0999 13.4163 14.9166C13.4163 15.7333 13.6983 16.4235 14.2622 16.9874C14.8261 17.5513 15.5163 17.8333 16.333 17.8333Z" fill="#4A4A4A" fill-opacity="0.6"/>
</svg>
