<svg width="30" height="28" viewBox="0 0 30 28" fill="none" xmlns="http://www.w3.org/2000/svg">
<path fill-rule="evenodd" clip-rule="evenodd" d="M5.64456 18.0418C6.77759 16.9478 8.31432 16.3333 9.91667 16.3333H19.5833C21.1857 16.3333 22.7224 16.9478 23.8554 18.0418C24.9885 19.1358 25.625 20.6195 25.625 22.1666V24.4999C25.625 25.1442 25.084 25.6666 24.4167 25.6666C23.7493 25.6666 23.2083 25.1442 23.2083 24.4999V22.1666C23.2083 21.2383 22.8264 20.3481 22.1466 19.6917C21.4668 19.0353 20.5447 18.6666 19.5833 18.6666H9.91667C8.95526 18.6666 8.03322 19.0353 7.3534 19.6917C6.67359 20.3481 6.29167 21.2383 6.29167 22.1666V24.4999C6.29167 25.1442 5.75068 25.6666 5.08333 25.6666C4.41599 25.6666 3.875 25.1442 3.875 24.4999V22.1666C3.875 20.6195 4.51153 19.1358 5.64456 18.0418Z" fill="#4A4A4A" fill-opacity="0.6"/>
<path fill-rule="evenodd" clip-rule="evenodd" d="M14.7497 4.66659C12.7476 4.66659 11.1247 6.23359 11.1247 8.16659C11.1247 10.0996 12.7476 11.6666 14.7497 11.6666C16.7517 11.6666 18.3747 10.0996 18.3747 8.16659C18.3747 6.23359 16.7517 4.66659 14.7497 4.66659ZM8.70801 8.16659C8.70801 4.94492 11.413 2.33325 14.7497 2.33325C18.0864 2.33325 20.7913 4.94492 20.7913 8.16659C20.7913 11.3882 18.0864 13.9999 14.7497 13.9999C11.413 13.9999 8.70801 11.3882 8.70801 8.16659Z" fill="#4A4A4A" fill-opacity="0.6"/>
</svg>
