<svg width="25" height="25" viewBox="0 0 25 25" fill="none" xmlns="http://www.w3.org/2000/svg">
<path d="M0.5 12.5C0.5 5.8725 5.8725 0.5 12.5 0.5C19.1275 0.5 24.5 5.8725 24.5 12.5C24.5 19.1275 19.1275 24.5 12.5 24.5C5.8725 24.5 0.5 19.1275 0.5 12.5ZM12.7865 13.372C14.2735 13.738 14.719 14.223 14.719 15.042C14.719 15.893 14.1465 16.537 12.7865 16.6405V13.372ZM11.888 11.5355C10.616 11.217 10.1385 10.6845 10.1385 9.9605C10.1385 9.2365 10.743 8.577 11.8885 8.434L11.888 11.5355ZM12.7865 11.75V8.434C13.8045 8.561 14.52 9.1415 14.6235 10.144H16.2775C16.214 8.339 14.7745 7.146 12.7865 6.9865V5.643H11.888V6.9865C9.884 7.138 8.453 8.3145 8.453 10.096C8.453 11.71 9.5425 12.617 11.562 13.086L11.888 13.1655V16.6325C10.608 16.4975 10.0035 15.8135 9.8605 14.883H8.2145C8.2695 16.7915 9.8685 17.9285 11.888 18.08V19.4155H12.7865V18.08C14.8145 17.9365 16.405 16.8315 16.405 14.883C16.405 13.1895 15.26 12.3305 13.1685 11.8455L12.7865 11.75Z" fill="black"/>
</svg>
