<svg width="16" height="17" viewBox="0 0 16 17" fill="none" xmlns="http://www.w3.org/2000/svg">
<path fill-rule="evenodd" clip-rule="evenodd" d="M11.9923 12.158L16 16.1426L15.1739 16.9637L11.1574 12.9714C9.80118 14.0831 8.06541 14.6312 6.31237 14.5013C4.55933 14.3714 2.92446 13.5737 1.74894 12.2745C0.573418 10.9753 -0.0519362 9.27507 0.0033804 7.5286C0.058697 5.78213 0.790411 4.12436 2.04582 2.90125C3.30124 1.67813 4.98335 0.984174 6.74114 0.964189C8.49892 0.944204 10.1966 1.59974 11.4798 2.79399C12.763 3.98824 13.5327 5.62894 13.6282 7.37369C13.7237 9.11845 13.1376 10.8325 11.9923 12.158ZM12.4696 7.74159C12.4696 6.25208 11.8744 4.82359 10.8148 3.77035C9.75515 2.71711 8.31801 2.12541 6.8195 2.12541C5.321 2.12541 3.88386 2.71711 2.82426 3.77035C1.76465 4.82359 1.16937 6.25208 1.16937 7.74159C1.16937 9.23109 1.76465 10.6596 2.82426 11.7128C3.88386 12.7661 5.321 13.3578 6.8195 13.3578C8.31801 13.3578 9.75515 12.7661 10.8148 11.7128C11.8744 10.6596 12.4696 9.23109 12.4696 7.74159Z" fill="black"/>
</svg>
