<svg width="15" height="14" viewBox="0 0 15 14" fill="none" xmlns="http://www.w3.org/2000/svg">
<path d="M13.1875 7C13.1875 8.50842 12.5883 9.95506 11.5217 11.0217C10.4551 12.0883 9.00842 12.6875 7.5 12.6875C5.99158 12.6875 4.54494 12.0883 3.47833 11.0217C2.41172 9.95506 1.8125 8.50842 1.8125 7C1.8125 5.49158 2.41172 4.04494 3.47833 2.97833C4.54494 1.91172 5.99158 1.3125 7.5 1.3125C9.00842 1.3125 10.4551 1.91172 11.5217 2.97833C12.5883 4.04494 13.1875 5.49158 13.1875 7ZM0.5 7C0.5 8.85652 1.2375 10.637 2.55025 11.9497C3.86301 13.2625 5.64348 14 7.5 14C9.35652 14 11.137 13.2625 12.4497 11.9497C13.7625 10.637 14.5 8.85652 14.5 7C14.5 5.14348 13.7625 3.36301 12.4497 2.05025C11.137 0.737498 9.35652 0 7.5 0C5.64348 0 3.86301 0.737498 2.55025 2.05025C1.2375 3.36301 0.5 5.14348 0.5 7ZM6.84375 3.28125V7C6.84375 7.21875 6.95312 7.42383 7.13633 7.54688L9.76133 9.29688C10.0621 9.49922 10.4695 9.41719 10.6719 9.11367C10.8742 8.81016 10.7922 8.40547 10.4887 8.20312L8.15625 6.65V3.28125C8.15625 2.91758 7.86367 2.625 7.5 2.625C7.13633 2.625 6.84375 2.91758 6.84375 3.28125Z" fill="#171766"/>
</svg>
