<svg width="25" height="21" viewBox="0 0 25 21" fill="none" xmlns="http://www.w3.org/2000/svg">
<path d="M0 0.5H25V20.5H0V0.5Z" stroke="#E5E7EB"/>
<path d="M5.625 19.25C2.51953 19.25 0 16.7305 0 13.625C0 11.1719 1.57031 9.08594 3.75781 8.31641C3.75391 8.21094 3.75 8.10547 3.75 8C3.75 4.54688 6.54688 1.75 10 1.75C12.3164 1.75 14.3359 3.00781 15.418 4.88281C16.0117 4.48438 16.7305 4.25 17.5 4.25C19.5703 4.25 21.25 5.92969 21.25 8C21.25 8.47656 21.1602 8.92969 21 9.35156C23.2812 9.8125 25 11.832 25 14.25C25 17.0117 22.7617 19.25 20 19.25H5.625ZM8.71094 10.7734C8.34375 11.1406 8.34375 11.7344 8.71094 12.0977C9.07812 12.4609 9.67188 12.4648 10.0352 12.0977L11.5586 10.5742V15.8125C11.5586 16.332 11.9766 16.75 12.4961 16.75C13.0156 16.75 13.4336 16.332 13.4336 15.8125V10.5742L14.957 12.0977C15.3242 12.4648 15.918 12.4648 16.2812 12.0977C16.6445 11.7305 16.6484 11.1367 16.2812 10.7734L13.1562 7.64844C12.7891 7.28125 12.1953 7.28125 11.832 7.64844L8.70703 10.7734H8.71094Z" fill="#9CA3AF"/>
</svg>
